<svg width="48" height="48" viewBox="0 0 48 48" fill="none" xmlns="http://www.w3.org/2000/svg">
<path d="M25.84 4.51999L38.86 11.54C40.38 12.36 40.38 14.7 38.86 15.52L25.84 22.54C24.68 23.16 23.32 23.16 22.16 22.54L9.14 15.52C7.62 14.7 7.62 12.36 9.14 11.54L22.16 4.51999C23.32 3.89999 24.68 3.89999 25.84 4.51999Z" stroke="#FE7534" stroke-width="1.5" stroke-linecap="round" stroke-linejoin="round"/>
<path d="M7.22 20.26L19.32 26.32C20.82 27.08 21.78 28.62 21.78 30.3V41.74C21.78 43.4 20.04 44.46 18.56 43.72L6.46 37.66C4.96 36.9 4 35.36 4 33.68V22.24C4 20.58 5.74 19.52 7.22 20.26Z" stroke="#FE7534" stroke-width="1.5" stroke-linecap="round" stroke-linejoin="round"/>
<path d="M40.78 20.26L28.68 26.32C27.18 27.08 26.22 28.62 26.22 30.3V41.74C26.22 43.4 27.96 44.46 29.44 43.72L41.54 37.66C43.04 36.9 44 35.36 44 33.68V22.24C44 20.58 42.26 19.52 40.78 20.26Z" stroke="#FE7534" stroke-width="1.5" stroke-linecap="round" stroke-linejoin="round"/>
</svg>
